<svg viewBox="0 0 575 575" class="roots-wrapper"><g transform="rotate(0 0 0)"><svg viewBoxSize="575" data-root-id="7922232821184" xmlns="http://www.w3.org/2000/svg" viewBox="0 -0.00001527322456240654 104 103.09001159667969" fill="none" height="569.9687363265397" width="575" y="0" x="0" preserveAspectRatio="xMinYMin" zoom="1" editorType="buyer" data-layer-role="icon" style="position: absolute; height: 569.969px; width: 575px; top: 0px; left: 0px;"><path fill-rule="evenodd" clip-rule="evenodd" d="M47.5657 0.768269C47.9816 1.30026 48.1009 2.00618 47.883 2.64531L33.2848 45.47H51.61C52.2314 45.47 52.8174 45.7588 53.196 46.2515C53.5745 46.7443 53.7026 47.385 53.5425 47.9853L45.6066 77.745L74.8294 39.1789L52.3132 38.5392C51.5933 38.5187 50.9399 38.1128 50.6027 37.4763C50.2655 36.8398 50.2966 36.0713 50.6841 35.4641L70.0797 5.07135C70.0927 5.03725 70.1066 5.00331 70.1216 4.96956C70.4574 4.2118 71.2065 3.76601 71.9863 3.77981C72.3566 3.77692 72.732 3.87674 73.0681 4.08906C91.0966 12.2148 104 29.9313 104 51.09C104 64.8813 98.5214 78.1077 88.7695 87.8595C79.0177 97.6114 65.7913 103.09 52 103.09C38.2088 103.09 24.9823 97.6114 15.2305 87.8595C5.47857 78.1077 0 64.8813 0 51.09C0 25.3701 18.8642 4.58682 43.2997 0.372608L43.3423 0.364429C43.3834 0.356603 43.4418 0.345608 43.5147 0.332261C43.6601 0.305615 43.8645 0.269337 44.104 0.230078C44.5747 0.152946 45.2155 0.0585626 45.8208 0.00717027C46.4936 -0.0499563 47.1498 0.236277 47.5657 0.768269ZM72.7334 8.34855L55.9544 34.641L78.8268 35.2908C79.5756 35.3121 80.2497 35.75 80.5735 36.4255C80.8973 37.101 80.8165 37.9008 80.3641 38.4979L42.6441 88.2779C42.0667 89.0398 41.0309 89.2866 40.1719 88.8669C39.313 88.4472 38.8712 87.4784 39.1175 86.5547L49.0068 49.47H30.49C29.8447 49.47 29.2391 49.1587 28.8636 48.6339C28.488 48.1092 28.3888 47.4355 28.597 46.8247L43.0289 4.48794C20.8706 8.757 4 27.7567 4 51.09C4 63.8204 9.05713 76.0294 18.0589 85.0311C27.0606 94.0329 39.2696 99.09 52 99.09C64.7304 99.09 76.9394 94.0329 85.9411 85.0311C94.9429 76.0294 100 63.8204 100 51.09C100 32.1507 88.7605 16.1348 72.7334 8.34855Z" fill="url(#paint0_linear_22009_2400)" name="Layer %{number}" zoom="1" data-layer-id="6609051921185" style="fill: rgb(255, 255, 255); fill-opacity: 1;"></path><linearGradient id="paint0_linear_22009_2400" x1="52" y1="2" x2="52" y2="101.09" gradientUnits="userSpaceOnUse" name="Layer %{number}" zoom="1" data-layer-id="5830293321185"><stop stop-color="#5EA2EE"></stop><stop offset="1" stop-color="#4D53EA"></stop></linearGradient></svg></g><g transform="rotate(0 0 0)"><svg viewBoxSize="575" data-root-id="8275424721185" xmlns="http://www.w3.org/2000/svg" y="398.92740631103516" viewBox="0 0 0 0" x="287.5" height="0" width="0" fontUrl="https://fonts.gstatic.com/s/josefinsans/v32/Qw3PZQNVED7rKGKxtqIqX5E-AVSJrOCfjY46_DjQXMFrLgTsQV0.ttf" zoom="1" editorType="buyer" data-layer-role="slogan" style="position: absolute; top: 398.927px; width: 0px; height: 0px; left: 287.5px;"><g data-horizontal-grow="center" zoom="1" root="[object Object]" style="fill: rgb(255, 255, 255); fill-opacity: 0.6;"><path d="" transform="translate(0, 0)"></path></g></svg></g><g transform="rotate(0 0 0)"><svg viewBoxSize="575" data-root-id="7065246221185" xmlns="http://www.w3.org/2000/svg" y="398.927" viewBox="0 0 0 0" x="287.4998049316406" height="0" width="0" fontUrl="https://fonts.gstatic.com/s/fredoka/v16/X7nP4b87HvSqjb_WIi2yDCRwoQ_k7367_B-i2yQag0-mac3O8SLMFuOLlNldbw.ttf" zoom="1" editorType="buyer" data-layer-role="brandName" style="position: absolute; top: 398.927px; width: 0px; height: 0px; left: 287.5px;"><g data-horizontal-grow="center" zoom="1" root="[object Object]" style="fill: rgb(255, 255, 255); fill-opacity: 1;"><path d="" transform="translate(0, 0)"></path></g></svg></g></svg>