<svg viewBox="0 0 575 575" class="roots-wrapper"><g transform="rotate(0 0 0)"><svg viewBoxSize="575" data-root-id="6598165233029" xmlns="http://www.w3.org/2000/svg" viewBox="0 -0.00001527322456240654 104 103.09001159667969" fill="none" height="304.3138916167559" width="306.99993896484375" y="75" x="134" preserveAspectRatio="xMinYMin" zoom="1" editorType="buyer" data-layer-role="icon" style="position: absolute; height: 304.314px; width: 307px; top: 75px; left: 134px;"><path fill-rule="evenodd" clip-rule="evenodd" d="M47.5657 0.768269C47.9816 1.30026 48.1009 2.00618 47.883 2.64531L33.2848 45.47H51.61C52.2314 45.47 52.8174 45.7588 53.196 46.2515C53.5745 46.7443 53.7026 47.385 53.5425 47.9853L45.6066 77.745L74.8294 39.1789L52.3132 38.5392C51.5933 38.5187 50.9399 38.1128 50.6027 37.4763C50.2655 36.8398 50.2966 36.0713 50.6841 35.4641L70.0797 5.07135C70.0927 5.03725 70.1066 5.00331 70.1216 4.96956C70.4574 4.2118 71.2065 3.76601 71.9863 3.77981C72.3566 3.77692 72.732 3.87674 73.0681 4.08906C91.0966 12.2148 104 29.9313 104 51.09C104 64.8813 98.5214 78.1077 88.7695 87.8595C79.0177 97.6114 65.7913 103.09 52 103.09C38.2088 103.09 24.9823 97.6114 15.2305 87.8595C5.47857 78.1077 0 64.8813 0 51.09C0 25.3701 18.8642 4.58682 43.2997 0.372608L43.3423 0.364429C43.3834 0.356603 43.4418 0.345608 43.5147 0.332261C43.6601 0.305615 43.8645 0.269337 44.104 0.230078C44.5747 0.152946 45.2155 0.0585626 45.8208 0.00717027C46.4936 -0.0499563 47.1498 0.236277 47.5657 0.768269ZM72.7334 8.34855L55.9544 34.641L78.8268 35.2908C79.5756 35.3121 80.2497 35.75 80.5735 36.4255C80.8973 37.101 80.8165 37.9008 80.3641 38.4979L42.6441 88.2779C42.0667 89.0398 41.0309 89.2866 40.1719 88.8669C39.313 88.4472 38.8712 87.4784 39.1175 86.5547L49.0068 49.47H30.49C29.8447 49.47 29.2391 49.1587 28.8636 48.6339C28.488 48.1092 28.3888 47.4355 28.597 46.8247L43.0289 4.48794C20.8706 8.757 4 27.7567 4 51.09C4 63.8204 9.05713 76.0294 18.0589 85.0311C27.0606 94.0329 39.2696 99.09 52 99.09C64.7304 99.09 76.9394 94.0329 85.9411 85.0311C94.9429 76.0294 100 63.8204 100 51.09C100 32.1507 88.7605 16.1348 72.7334 8.34855Z" fill="url(#paint0_linear_22009_2400)" name="Layer %{number}" zoom="1" data-layer-id="8233109633029" style="fill: rgb(0, 0, 0); fill-opacity: 1;"></path><linearGradient id="paint0_linear_22009_2400" x1="52" y1="2" x2="52" y2="101.09" gradientUnits="userSpaceOnUse" name="Layer %{number}" zoom="1" data-layer-id="7666060533029"><stop stop-color="#5EA2EE"></stop><stop offset="1" stop-color="#4D53EA"></stop></linearGradient></svg></g><g transform="rotate(0 0 0)"><svg viewBoxSize="575" data-root-id="1883862535171" xmlns="http://www.w3.org/2000/svg" y="517" zoom="1" editorType="buyer" x="87.885" data-layer-role="slogan" style="position: absolute; top: 517px; left: 87.885px; height: 16.12px; width: 399.23px;" width="399.2300109863281" height="16.1200008392334" viewBox="1.5299999713897705 4.389999866485596 399.2300109863281 16.1200008392334"><g data-horizontal-grow="center" zoom="1" root="[object Object]" style="fill: rgb(0, 0, 0); fill-opacity: 1;"><path d="M12.41 11.03L12.41 11.03Q12.41 12.44 11.97 13.60Q11.52 14.76 10.70 15.58Q9.89 16.40 8.75 16.86Q7.61 17.31 6.22 17.31L6.22 17.31L1.53 17.31L1.53 4.74L6.22 4.74Q7.61 4.74 8.75 5.19Q9.89 5.65 10.70 6.47Q11.52 7.30 11.97 8.46Q12.41 9.62 12.41 11.03ZM10.67 11.03L10.67 11.03Q10.67 9.87 10.35 8.96Q10.04 8.05 9.46 7.42Q8.88 6.79 8.06 6.45Q7.23 6.12 6.22 6.12L6.22 6.12L3.24 6.12L3.24 15.93L6.22 15.93Q7.23 15.93 8.06 15.60Q8.88 15.26 9.46 14.64Q10.04 14.01 10.35 13.10Q10.67 12.19 10.67 11.03ZM32.55 8.29L32.55 8.29Q33.35 8.29 34.03 8.55Q34.70 8.82 35.19 9.32Q35.68 9.83 35.96 10.57Q36.24 11.31 36.24 12.26L36.24 12.26Q36.24 12.62 36.16 12.75Q36.08 12.87 35.86 12.87L35.86 12.87L29.95 12.87Q29.97 13.71 30.18 14.33Q30.39 14.96 30.76 15.37Q31.12 15.79 31.63 16.00Q32.14 16.20 32.77 16.20L32.77 16.20Q33.36 16.20 33.78 16.07Q34.21 15.93 34.52 15.77Q34.82 15.61 35.03 15.48Q35.24 15.34 35.38 15.34L35.38 15.34Q35.58 15.34 35.68 15.49L35.68 15.49L36.12 16.06Q35.83 16.41 35.43 16.67Q35.03 16.93 34.57 17.10Q34.10 17.26 33.61 17.35Q33.12 17.43 32.64 17.43L32.64 17.43Q31.72 17.43 30.94 17.12Q30.17 16.81 29.60 16.21Q29.04 15.61 28.72 14.72Q28.41 13.83 28.41 12.69L28.41 12.69Q28.41 11.76 28.69 10.95Q28.98 10.14 29.51 9.55Q30.05 8.96 30.82 8.62Q31.59 8.29 32.55 8.29ZM32.59 9.43L32.59 9.43Q31.46 9.43 30.81 10.09Q30.16 10.74 30.00 11.90L30.00 11.90L34.83 11.90Q34.83 11.35 34.68 10.90Q34.53 10.45 34.25 10.12Q33.96 9.79 33.54 9.61Q33.12 9.43 32.59 9.43ZM54.34 20.31L52.78 20.31L52.78 8.43L53.71 8.43Q54.04 8.43 54.13 8.75L54.13 8.75L54.26 9.80Q54.83 9.11 55.56 8.69Q56.30 8.27 57.25 8.27L57.25 8.27Q58.01 8.27 58.64 8.56Q59.26 8.86 59.70 9.43Q60.14 10.00 60.37 10.85Q60.61 11.70 60.61 12.81L60.61 12.81Q60.61 13.79 60.35 14.64Q60.08 15.48 59.59 16.10Q59.10 16.72 58.39 17.07Q57.67 17.43 56.78 17.43L56.78 17.43Q55.95 17.43 55.37 17.16Q54.79 16.89 54.34 16.39L54.34 16.39L54.34 20.31ZM56.73 9.53L56.73 9.53Q55.97 9.53 55.40 9.88Q54.82 10.23 54.34 10.87L54.34 10.87L54.34 15.17Q54.77 15.75 55.28 15.98Q55.80 16.22 56.43 16.22L56.43 16.22Q57.66 16.22 58.33 15.33Q59.00 14.45 59.00 12.81L59.00 12.81Q59.00 11.94 58.84 11.32Q58.69 10.70 58.40 10.30Q58.11 9.90 57.69 9.71Q57.27 9.53 56.73 9.53ZM77.19 4.39L78.75 4.39L78.75 17.31L77.19 17.31L77.19 4.39ZM99.65 8.29L99.65 8.29Q100.62 8.29 101.41 8.61Q102.19 8.93 102.74 9.53Q103.29 10.13 103.58 10.97Q103.88 11.82 103.88 12.86L103.88 12.86Q103.88 13.91 103.58 14.76Q103.29 15.60 102.74 16.19Q102.19 16.79 101.41 17.11Q100.62 17.43 99.65 17.43L99.65 17.43Q98.68 17.43 97.89 17.11Q97.11 16.79 96.55 16.19Q96.00 15.60 95.70 14.76Q95.41 13.91 95.41 12.86L95.41 12.86Q95.41 11.82 95.70 10.97Q96.00 10.13 96.55 9.53Q97.11 8.93 97.89 8.61Q98.68 8.29 99.65 8.29ZM99.65 16.21L99.65 16.21Q100.96 16.21 101.61 15.33Q102.26 14.45 102.26 12.87L102.26 12.87Q102.26 11.28 101.61 10.40Q100.96 9.51 99.65 9.51L99.65 9.51Q98.98 9.51 98.49 9.74Q98.00 9.97 97.67 10.40Q97.34 10.83 97.18 11.45Q97.02 12.08 97.02 12.87L97.02 12.87Q97.02 13.66 97.18 14.28Q97.34 14.90 97.67 15.33Q98.00 15.75 98.49 15.98Q98.98 16.21 99.65 16.21ZM127.69 8.43L122.73 19.93Q122.66 20.10 122.54 20.21Q122.42 20.31 122.17 20.31L122.17 20.31L121.02 20.31L122.64 16.79L118.97 8.43L120.32 8.43Q120.52 8.43 120.64 8.53Q120.75 8.63 120.81 8.75L120.81 8.75L123.18 14.34Q123.26 14.54 123.32 14.73Q123.37 14.92 123.42 15.12L123.42 15.12Q123.48 14.92 123.54 14.73Q123.60 14.54 123.68 14.33L123.68 14.33L125.99 8.75Q126.04 8.61 126.17 8.52Q126.29 8.43 126.44 8.43L126.44 8.43L127.69 8.43ZM143.84 8.43L145.40 8.43L145.40 17.31L143.84 17.31L143.84 8.43ZM145.75 5.64L145.75 5.64Q145.75 5.87 145.66 6.06Q145.56 6.26 145.41 6.41Q145.26 6.57 145.06 6.65Q144.85 6.74 144.63 6.74L144.63 6.74Q144.40 6.74 144.20 6.65Q144.00 6.57 143.85 6.41Q143.70 6.26 143.61 6.06Q143.52 5.87 143.52 5.64L143.52 5.64Q143.52 5.41 143.61 5.20Q143.70 5.00 143.85 4.84Q144.00 4.69 144.20 4.60Q144.40 4.52 144.63 4.52L144.63 4.52Q144.85 4.52 145.06 4.60Q145.26 4.69 145.41 4.84Q145.56 5.00 145.66 5.20Q145.75 5.41 145.75 5.64ZM164.26 17.31L162.70 17.31L162.70 8.43L163.63 8.43Q163.97 8.43 164.05 8.75L164.05 8.75L164.18 9.71Q164.76 9.07 165.47 8.68Q166.18 8.29 167.12 8.29L167.12 8.29Q167.85 8.29 168.41 8.53Q168.96 8.77 169.34 9.21Q169.71 9.65 169.90 10.28Q170.10 10.90 170.10 11.65L170.10 11.65L170.10 17.31L168.53 17.31L168.53 11.65Q168.53 10.64 168.07 10.09Q167.61 9.53 166.67 9.53L166.67 9.53Q165.97 9.53 165.37 9.86Q164.77 10.20 164.26 10.77L164.26 10.77L164.26 17.31ZM190.00 8.28L190.00 8.28Q190.58 8.28 191.08 8.40Q191.58 8.53 192.00 8.78L192.00 8.78L194.41 8.78L194.41 9.35Q194.41 9.64 194.04 9.72L194.04 9.72L193.03 9.86Q193.33 10.43 193.33 11.13L193.33 11.13Q193.33 11.78 193.08 12.31Q192.83 12.84 192.39 13.22Q191.94 13.60 191.33 13.80Q190.72 14.00 190.00 14.00L190.00 14.00Q189.37 14.00 188.82 13.85L188.82 13.85Q188.54 14.03 188.40 14.23Q188.25 14.43 188.25 14.62L188.25 14.62Q188.25 14.94 188.51 15.10Q188.76 15.26 189.18 15.33Q189.60 15.40 190.14 15.42Q190.67 15.44 191.23 15.48Q191.79 15.52 192.32 15.61Q192.86 15.71 193.28 15.93Q193.70 16.15 193.95 16.54Q194.21 16.92 194.21 17.53L194.21 17.53Q194.21 18.10 193.92 18.64Q193.64 19.17 193.10 19.59Q192.57 20.01 191.79 20.26Q191.02 20.51 190.05 20.51L190.05 20.51Q189.08 20.51 188.34 20.31Q187.61 20.12 187.13 19.80Q186.65 19.47 186.41 19.05Q186.17 18.62 186.17 18.16L186.17 18.16Q186.17 17.50 186.58 17.04Q187.00 16.58 187.73 16.31L187.73 16.31Q187.35 16.13 187.13 15.84Q186.90 15.54 186.90 15.05L186.90 15.05Q186.90 14.86 186.97 14.65Q187.04 14.45 187.19 14.25Q187.33 14.05 187.54 13.86Q187.75 13.68 188.03 13.54L188.03 13.54Q187.38 13.17 187.00 12.56Q186.63 11.95 186.63 11.13L186.63 11.13Q186.63 10.49 186.88 9.96Q187.13 9.42 187.58 9.05Q188.02 8.68 188.64 8.48Q189.26 8.28 190.00 8.28ZM192.77 17.79L192.77 17.79Q192.77 17.46 192.58 17.25Q192.40 17.05 192.08 16.94Q191.77 16.83 191.36 16.78Q190.94 16.73 190.49 16.71Q190.03 16.68 189.56 16.66Q189.09 16.63 188.66 16.56L188.66 16.56Q188.16 16.80 187.84 17.14Q187.53 17.48 187.53 17.96L187.53 17.96Q187.53 18.25 187.69 18.51Q187.84 18.77 188.16 18.96Q188.47 19.15 188.95 19.26Q189.43 19.37 190.08 19.37L190.08 19.37Q190.71 19.37 191.21 19.25Q191.71 19.14 192.05 18.93Q192.40 18.72 192.58 18.43Q192.77 18.14 192.77 17.79ZM190.00 12.97L190.00 12.97Q190.47 12.97 190.83 12.84Q191.20 12.70 191.44 12.47Q191.69 12.23 191.81 11.90Q191.93 11.57 191.93 11.18L191.93 11.18Q191.93 10.36 191.44 9.88Q190.94 9.40 190.00 9.40L190.00 9.40Q189.06 9.40 188.56 9.88Q188.07 10.36 188.07 11.18L188.07 11.18Q188.07 11.57 188.20 11.90Q188.32 12.23 188.57 12.47Q188.81 12.70 189.17 12.84Q189.53 12.97 190.00 12.97ZM227.42 4.74L237.26 4.74L237.26 6.17L233.20 6.17L233.20 17.31L231.50 17.31L231.50 6.17L227.42 6.17L227.42 4.74ZM254.92 17.31L253.36 17.31L253.36 4.39L254.92 4.39L254.92 9.62Q255.49 9.01 256.18 8.65Q256.87 8.29 257.78 8.29L257.78 8.29Q258.50 8.29 259.06 8.53Q259.62 8.77 259.99 9.21Q260.36 9.65 260.56 10.28Q260.75 10.90 260.75 11.65L260.75 11.65L260.75 17.31L259.19 17.31L259.19 11.65Q259.19 10.64 258.73 10.09Q258.27 9.53 257.32 9.53L257.32 9.53Q256.63 9.53 256.03 9.86Q255.43 10.20 254.92 10.77L254.92 10.77L254.92 17.31ZM281.26 8.29L281.26 8.29Q282.23 8.29 283.01 8.61Q283.80 8.93 284.35 9.53Q284.89 10.13 285.19 10.97Q285.48 11.82 285.48 12.86L285.48 12.86Q285.48 13.91 285.19 14.76Q284.89 15.60 284.35 16.19Q283.80 16.79 283.01 17.11Q282.23 17.43 281.26 17.43L281.26 17.43Q280.28 17.43 279.50 17.11Q278.71 16.79 278.16 16.19Q277.61 15.60 277.31 14.76Q277.01 13.91 277.01 12.86L277.01 12.86Q277.01 11.82 277.31 10.97Q277.61 10.13 278.16 9.53Q278.71 8.93 279.50 8.61Q280.28 8.29 281.26 8.29ZM281.26 16.21L281.26 16.21Q282.57 16.21 283.22 15.33Q283.87 14.45 283.87 12.87L283.87 12.87Q283.87 11.28 283.22 10.40Q282.57 9.51 281.26 9.51L281.26 9.51Q280.59 9.51 280.10 9.74Q279.61 9.97 279.28 10.40Q278.95 10.83 278.79 11.45Q278.63 12.08 278.63 12.87L278.63 12.87Q278.63 13.66 278.79 14.28Q278.95 14.90 279.28 15.33Q279.61 15.75 280.10 15.98Q280.59 16.21 281.26 16.21ZM301.75 8.43L303.31 8.43L303.31 14.09Q303.31 15.10 303.78 15.65Q304.24 16.20 305.18 16.20L305.18 16.20Q305.87 16.20 306.47 15.88Q307.08 15.55 307.58 14.97L307.58 14.97L307.58 8.43L309.14 8.43L309.14 17.31L308.22 17.31Q307.88 17.31 307.79 16.98L307.79 16.98L307.67 16.03Q307.09 16.67 306.37 17.06Q305.66 17.45 304.73 17.45L304.73 17.45Q304.00 17.45 303.44 17.21Q302.89 16.96 302.51 16.53Q302.13 16.09 301.94 15.47Q301.75 14.84 301.75 14.09L301.75 14.09L301.75 8.43ZM329.26 8.28L329.26 8.28Q329.84 8.28 330.34 8.40Q330.84 8.53 331.26 8.78L331.26 8.78L333.67 8.78L333.67 9.35Q333.67 9.64 333.30 9.72L333.30 9.72L332.29 9.86Q332.59 10.43 332.59 11.13L332.59 11.13Q332.59 11.78 332.34 12.31Q332.09 12.84 331.65 13.22Q331.20 13.60 330.59 13.80Q329.98 14.00 329.26 14.00L329.26 14.00Q328.63 14.00 328.08 13.85L328.08 13.85Q327.80 14.03 327.66 14.23Q327.51 14.43 327.51 14.62L327.51 14.62Q327.51 14.94 327.77 15.10Q328.02 15.26 328.44 15.33Q328.86 15.40 329.40 15.42Q329.93 15.44 330.49 15.48Q331.05 15.52 331.58 15.61Q332.12 15.71 332.54 15.93Q332.96 16.15 333.21 16.54Q333.47 16.92 333.47 17.53L333.47 17.53Q333.47 18.10 333.18 18.64Q332.90 19.17 332.36 19.59Q331.83 20.01 331.05 20.26Q330.28 20.51 329.31 20.51L329.31 20.51Q328.34 20.51 327.60 20.31Q326.87 20.12 326.39 19.80Q325.91 19.47 325.67 19.05Q325.43 18.62 325.43 18.16L325.43 18.16Q325.43 17.50 325.84 17.04Q326.26 16.58 326.99 16.31L326.99 16.31Q326.61 16.13 326.39 15.84Q326.16 15.54 326.16 15.05L326.16 15.05Q326.16 14.86 326.23 14.65Q326.30 14.45 326.45 14.25Q326.59 14.05 326.80 13.86Q327.01 13.68 327.29 13.54L327.29 13.54Q326.64 13.17 326.26 12.56Q325.89 11.95 325.89 11.13L325.89 11.13Q325.89 10.49 326.14 9.96Q326.39 9.42 326.84 9.05Q327.28 8.68 327.90 8.48Q328.52 8.28 329.26 8.28ZM332.03 17.79L332.03 17.79Q332.03 17.46 331.84 17.25Q331.66 17.05 331.34 16.94Q331.03 16.83 330.62 16.78Q330.20 16.73 329.75 16.71Q329.29 16.68 328.82 16.66Q328.35 16.63 327.92 16.56L327.92 16.56Q327.42 16.80 327.10 17.14Q326.79 17.48 326.79 17.96L326.79 17.96Q326.79 18.25 326.95 18.51Q327.10 18.77 327.42 18.96Q327.73 19.15 328.21 19.26Q328.69 19.37 329.34 19.37L329.34 19.37Q329.97 19.37 330.47 19.25Q330.97 19.14 331.31 18.93Q331.66 18.72 331.84 18.43Q332.03 18.14 332.03 17.79ZM329.26 12.97L329.26 12.97Q329.73 12.97 330.09 12.84Q330.46 12.70 330.70 12.47Q330.95 12.23 331.07 11.90Q331.19 11.57 331.19 11.18L331.19 11.18Q331.19 10.36 330.70 9.88Q330.20 9.40 329.26 9.40L329.26 9.40Q328.32 9.40 327.82 9.88Q327.33 10.36 327.33 11.18L327.33 11.18Q327.33 11.57 327.46 11.90Q327.58 12.23 327.83 12.47Q328.07 12.70 328.43 12.84Q328.79 12.97 329.26 12.97ZM351.34 17.31L349.78 17.31L349.78 4.39L351.34 4.39L351.34 9.62Q351.91 9.01 352.60 8.65Q353.30 8.29 354.20 8.29L354.20 8.29Q354.93 8.29 355.48 8.53Q356.04 8.77 356.41 9.21Q356.79 9.65 356.98 10.28Q357.17 10.90 357.17 11.65L357.17 11.65L357.17 17.31L355.61 17.31L355.61 11.65Q355.61 10.64 355.15 10.09Q354.69 9.53 353.74 9.53L353.74 9.53Q353.05 9.53 352.45 9.86Q351.85 10.20 351.34 10.77L351.34 10.77L351.34 17.31ZM376.78 17.45L376.78 17.45Q375.72 17.45 375.16 16.86Q374.59 16.27 374.59 15.17L374.59 15.17L374.59 9.73L373.52 9.73Q373.38 9.73 373.29 9.65Q373.19 9.57 373.19 9.39L373.19 9.39L373.19 8.77L374.65 8.58L375.01 5.84Q375.02 5.71 375.12 5.62Q375.22 5.54 375.36 5.54L375.36 5.54L376.15 5.54L376.15 8.60L378.70 8.60L378.70 9.73L376.15 9.73L376.15 15.06Q376.15 15.62 376.43 15.90Q376.70 16.17 377.13 16.17L377.13 16.17Q377.37 16.17 377.55 16.10Q377.73 16.04 377.86 15.96Q377.99 15.88 378.09 15.81Q378.18 15.75 378.25 15.75L378.25 15.75Q378.37 15.75 378.47 15.90L378.47 15.90L378.92 16.64Q378.52 17.02 377.95 17.23Q377.38 17.45 376.78 17.45ZM400.61 9.32L400.26 9.89Q400.16 10.08 399.94 10.08L399.94 10.08Q399.81 10.08 399.64 9.99Q399.47 9.89 399.23 9.77Q398.99 9.65 398.66 9.55Q398.33 9.45 397.87 9.45L397.87 9.45Q397.48 9.45 397.16 9.55Q396.84 9.65 396.62 9.83Q396.40 10.00 396.28 10.24Q396.16 10.47 396.16 10.74L396.16 10.74Q396.16 11.08 396.36 11.31Q396.56 11.54 396.88 11.70Q397.20 11.87 397.62 12.00Q398.03 12.13 398.46 12.27Q398.90 12.41 399.31 12.59Q399.72 12.77 400.04 13.03Q400.37 13.29 400.57 13.67Q400.76 14.05 400.76 14.59L400.76 14.59Q400.76 15.20 400.54 15.72Q400.33 16.25 399.90 16.63Q399.47 17.01 398.84 17.23Q398.22 17.45 397.41 17.45L397.41 17.45Q396.48 17.45 395.72 17.14Q394.97 16.84 394.44 16.37L394.44 16.37L394.81 15.77Q394.88 15.66 394.98 15.60Q395.07 15.54 395.23 15.54L395.23 15.54Q395.39 15.54 395.56 15.66Q395.74 15.78 395.99 15.93Q396.24 16.08 396.59 16.20Q396.95 16.32 397.48 16.32L397.48 16.32Q397.94 16.32 398.28 16.21Q398.62 16.09 398.85 15.89Q399.08 15.68 399.19 15.42Q399.30 15.16 399.30 14.86L399.30 14.86Q399.30 14.49 399.10 14.25Q398.90 14.01 398.58 13.84Q398.26 13.67 397.84 13.54Q397.42 13.41 396.99 13.27Q396.56 13.13 396.14 12.95Q395.72 12.77 395.40 12.50Q395.07 12.23 394.88 11.83Q394.68 11.43 394.68 10.86L394.68 10.86Q394.68 10.35 394.89 9.89Q395.10 9.42 395.50 9.06Q395.91 8.71 396.49 8.50Q397.08 8.29 397.84 8.29L397.84 8.29Q398.71 8.29 399.41 8.56Q400.11 8.84 400.61 9.32L400.61 9.32Z" transform="translate(0, 0)"></path></g></svg></g><g transform="rotate(0 0 0)"><svg viewBoxSize="575" data-root-id="4400075733029" xmlns="http://www.w3.org/2000/svg" y="427.2574448635627" viewBox="1.1151471138000488 23.399999618530273 395.5648498535156 76.36000061035156" x="87.885009765625" height="76.36000061035156" width="395.5648498535156" fontUrl="https://fonts.gstatic.com/s/fredoka/v16/X7nP4b87HvSqjb_WIi2yDCRwoQ_k7367_B-i2yQag0-mac3O8SLMFuOLlNldbw.ttf" zoom="1" editorType="buyer" data-layer-role="brandName" style="position: absolute; top: 427.257px; width: 395.565px; height: 76.36px; left: 87.885px;"><g data-horizontal-grow="center" zoom="1" root="[object Object]" style="fill: rgb(0, 0, 0); fill-opacity: 1;"><path d="M33.20 26.52L57.69 77.72Q58.37 78.98 58.41 79.87Q58.46 80.76 57.86 81.47Q57.27 82.19 56.01 82.78L56.01 82.78Q53.98 83.71 52.84 83.21Q51.70 82.70 50.77 80.76L50.77 80.76L29.65 35.82L8.70 80.67Q7.77 82.61 6.63 83.12Q5.49 83.63 3.38 82.70L3.38 82.70Q2.11 82.19 1.56 81.43Q1.01 80.67 1.14 79.57Q1.27 78.48 1.94 77.04L1.94 77.04L26.19 26.44Q26.69 25.43 27.66 24.79Q28.64 24.16 29.73 24.16L29.73 24.16Q30.49 24.16 31.17 24.41Q31.85 24.67 32.35 25.17Q32.86 25.68 33.20 26.52L33.20 26.52ZM45.62 66.31L13.77 66.31L16.64 59.81L42.83 59.81L45.62 66.31ZM78.39 83.54L78.39 83.54Q76.36 83.54 74.17 83.12Q71.97 82.70 69.90 81.90Q67.83 81.09 66.27 80.00Q64.71 78.90 63.95 77.55L63.95 77.55Q63.52 76.70 63.44 75.98Q63.35 75.27 63.69 74.59Q64.03 73.91 64.71 73.24L64.71 73.24Q65.55 72.22 66.40 72.27Q67.24 72.31 68.51 73.41L68.51 73.41Q69.44 74.00 70.70 74.72Q71.97 75.43 73.32 75.98Q74.67 76.53 76.07 76.91Q77.46 77.29 78.81 77.29L78.81 77.29Q82.70 77.29 85.06 75.81Q87.43 74.34 87.43 71.89L87.43 71.89Q87.43 70.45 86.84 69.44Q86.25 68.42 85.23 67.71Q84.22 66.99 82.95 66.48Q81.69 65.97 80.12 65.51Q78.56 65.04 77.04 64.62L77.04 64.62Q74.76 64.03 72.56 63.27Q70.37 62.51 68.59 61.29Q66.82 60.06 65.72 58.16Q64.62 56.26 64.62 53.30L64.62 53.30Q64.62 49.84 66.40 47.30Q68.17 44.77 71.38 43.38Q74.59 41.98 78.90 41.98L78.90 41.98Q80.76 41.98 82.36 42.24Q83.97 42.49 85.44 43.04Q86.92 43.59 88.27 44.31Q89.63 45.02 90.89 46.04L90.89 46.04Q92.41 47.05 92.50 48.23Q92.58 49.42 91.57 50.68L91.57 50.68Q90.81 51.78 89.88 52.08Q88.95 52.37 88.02 51.61L88.02 51.61Q86.67 50.60 85.15 49.84Q83.63 49.08 82.02 48.57Q80.42 48.07 78.73 48.07L78.73 48.07Q76.62 48.07 74.97 48.70Q73.32 49.33 72.44 50.56Q71.55 51.78 71.55 53.30L71.55 53.30Q71.55 54.65 72.27 55.50Q72.98 56.34 74.12 56.93Q75.27 57.53 76.83 57.99Q78.39 58.46 80.08 58.88L80.08 58.88Q82.53 59.47 85.11 60.27Q87.68 61.07 89.75 62.38Q91.82 63.69 93.13 65.85Q94.44 68.00 94.44 71.55L94.44 71.55Q94.44 77.12 90.05 80.33Q85.66 83.54 78.39 83.54ZM122.82 83.12L122.82 83.12Q118.85 83.12 116.11 82.36Q113.36 81.60 111.59 80.00Q109.81 78.39 109.05 75.81Q108.29 73.24 108.29 69.44L108.29 69.44L108.29 32.10Q108.29 30.92 108.55 30.07Q108.80 29.23 109.56 28.76Q110.32 28.30 111.93 28.30L111.93 28.30Q113.53 28.30 114.38 28.76Q115.22 29.23 115.47 30.03Q115.73 30.83 115.73 32.02L115.73 32.02L115.73 69.44Q115.73 71.63 116.11 72.94Q116.49 74.25 117.29 74.93Q118.09 75.60 119.44 75.77Q120.80 75.94 122.74 75.94L122.74 75.94Q124.09 75.94 124.94 76.19Q125.78 76.45 126.20 77.21Q126.62 77.97 126.62 79.49L126.62 79.49Q126.62 81.09 126.16 81.90Q125.70 82.70 124.81 82.91Q123.92 83.12 122.82 83.12ZM103.90 43.17L103.90 43.17L112.01 43.25L123.75 43.08Q124.94 43.08 125.78 43.29Q126.62 43.50 127.09 44.31Q127.55 45.11 127.55 46.71L127.55 46.71Q127.55 48.32 127.13 49.12Q126.71 49.92 125.86 50.18Q125.02 50.43 123.84 50.43L123.84 50.43L112.26 50.26L103.73 50.35Q101.96 50.35 101.33 49.50Q100.69 48.66 100.69 46.71L100.69 46.71Q100.69 44.86 101.45 44.01Q102.21 43.17 103.90 43.17ZM139.04 83.12L139.04 83.12Q137.44 83.12 136.63 82.66Q135.83 82.19 135.62 81.31Q135.41 80.42 135.41 79.24L135.41 79.24L135.41 45.95Q135.41 44.69 135.66 43.84Q135.92 43.00 136.68 42.62Q137.44 42.24 139.13 42.24L139.13 42.24Q140.65 42.24 141.45 42.62Q142.25 43.00 142.55 43.71Q142.84 44.43 142.84 45.36L142.84 45.36L142.51 47.90Q143.10 46.80 143.90 45.70Q144.70 44.60 145.93 43.71Q147.15 42.83 148.88 42.24Q150.62 41.65 153.15 41.65L153.15 41.65Q154.42 41.65 155.56 41.86Q156.70 42.07 157.75 42.49Q158.81 42.91 159.57 43.46Q160.33 44.01 160.79 44.64Q161.26 45.28 161.26 46.12L161.26 46.12Q161.26 47.98 160.08 49.29Q158.89 50.60 157.63 50.60L157.63 50.60Q156.53 50.60 156.02 50.30Q155.51 50.01 155.05 49.67Q154.59 49.33 153.74 49.04Q152.90 48.74 151.04 48.74L151.04 48.74Q149.77 48.74 148.38 49.25Q146.98 49.75 145.72 50.73Q144.45 51.70 143.65 53.22Q142.84 54.74 142.84 56.77L142.84 56.77L142.84 79.40Q142.84 80.59 142.59 81.43Q142.34 82.28 141.53 82.70Q140.73 83.12 139.04 83.12ZM204.42 83.04L204.42 83.04Q202.57 83.04 201.76 82.28Q200.96 81.52 200.79 79.91L200.79 79.91L201.13 75.69Q200.29 77.04 198.51 78.77Q196.74 80.50 193.87 81.81Q190.99 83.12 186.85 83.12L186.85 83.12Q182.80 83.12 179.29 81.52Q175.79 79.91 173.13 77.04Q170.47 74.17 168.99 70.45Q167.51 66.73 167.51 62.51L167.51 62.51Q167.51 58.37 168.99 54.70Q170.47 51.02 173.17 48.23Q175.87 45.45 179.38 43.84Q182.88 42.24 186.85 42.24L186.85 42.24Q190.57 42.24 193.19 43.21Q195.81 44.18 197.71 45.74Q199.61 47.30 201.05 49.25L201.05 49.25L200.88 45.70Q200.79 43.84 201.68 43.04Q202.57 42.24 204.51 42.24L204.51 42.24Q206.11 42.24 206.83 42.74Q207.55 43.25 207.80 44.18Q208.06 45.11 208.06 46.46L208.06 46.46L208.06 79.07Q208.06 80.25 207.80 81.18Q207.55 82.11 206.79 82.57Q206.03 83.04 204.42 83.04ZM188.12 76.03L188.12 76.03Q191.50 76.03 194.33 74.25Q197.16 72.48 198.81 69.48Q200.45 66.48 200.45 62.59L200.45 62.59Q200.45 58.62 198.72 55.63Q196.99 52.63 194.16 50.89Q191.33 49.16 187.95 49.16L187.95 49.16Q183.98 49.16 181.07 50.98Q178.15 52.80 176.46 55.84Q174.77 58.88 174.77 62.76L174.77 62.76Q174.77 66.56 176.46 69.56Q178.15 72.56 181.15 74.29Q184.15 76.03 188.12 76.03ZM238.80 82.78L238.80 82.78Q234.67 82.78 231.29 81.26Q227.91 79.74 225.54 77.00Q223.18 74.25 221.87 70.53Q220.56 66.82 220.64 62.34L220.64 62.34Q220.64 57.95 221.91 54.23Q223.18 50.51 225.58 47.77Q227.99 45.02 231.33 43.55Q234.67 42.07 238.80 42.07L238.80 42.07Q242.69 42.07 246.11 43.59Q249.53 45.11 252.11 47.85Q254.69 50.60 256.16 54.40Q257.64 58.20 257.64 62.59L257.64 62.59Q257.64 66.99 256.16 70.70Q254.69 74.42 252.11 77.12Q249.53 79.83 246.11 81.31Q242.69 82.78 238.80 82.78ZM221.23 99.76L221.23 99.76Q219.63 99.76 218.83 99.30Q218.02 98.83 217.73 97.99Q217.43 97.14 217.43 95.96L217.43 95.96L217.43 46.04Q217.43 44.86 217.69 44.01Q217.94 43.17 218.74 42.70Q219.55 42.24 221.15 42.24L221.15 42.24Q223.01 42.24 223.90 42.83Q224.78 43.42 224.95 44.94L224.95 44.94L224.95 95.88Q225.04 97.06 224.78 97.95Q224.53 98.83 223.73 99.30Q222.92 99.76 221.23 99.76ZM237.71 75.86L237.71 75.86Q241.25 75.86 244.13 74.12Q247.00 72.39 248.65 69.35Q250.29 66.31 250.29 62.43L250.29 62.43Q250.29 58.46 248.65 55.50Q247.00 52.54 244.17 50.89Q241.34 49.25 237.71 49.25L237.71 49.25Q234.16 49.25 231.33 50.94Q228.50 52.63 226.85 55.58Q225.20 58.54 225.20 62.43L225.20 62.43Q225.20 66.31 226.85 69.35Q228.50 72.39 231.33 74.12Q234.16 75.86 237.71 75.86ZM269.72 83.12L269.72 83.12Q268.12 83.12 267.27 82.66Q266.43 82.19 266.22 81.31Q266.01 80.42 266.01 79.24L266.01 79.24L266.01 27.20Q266.01 26.02 266.26 25.17Q266.51 24.33 267.36 23.86Q268.20 23.40 269.81 23.40L269.81 23.40Q271.50 23.40 272.30 23.86Q273.10 24.33 273.31 25.17Q273.52 26.02 273.52 27.28L273.52 27.28L273.52 48.15Q275.55 45.78 278.46 43.93Q281.38 42.07 285.60 42.07L285.60 42.07Q290.59 42.07 294.51 44.39Q298.44 46.71 300.77 50.94Q303.09 55.16 303.09 60.99L303.09 60.99L303.09 79.32Q303.09 80.50 302.84 81.35Q302.58 82.19 301.82 82.66Q301.06 83.12 299.37 83.12L299.37 83.12Q297.77 83.12 296.92 82.66Q296.08 82.19 295.82 81.31Q295.57 80.42 295.57 79.24L295.57 79.24L295.57 60.90Q295.57 57.36 294.39 54.74Q293.21 52.12 290.88 50.68Q288.56 49.25 285.01 49.25L285.01 49.25Q280.20 49.25 277.11 51.99Q274.03 54.74 273.52 59.30L273.52 59.30L273.52 79.32Q273.52 80.50 273.27 81.35Q273.02 82.19 272.21 82.66Q271.41 83.12 269.72 83.12ZM315.42 83.21L315.42 83.21Q312.89 83.21 311.87 82.19Q310.86 81.18 310.86 78.81L310.86 78.81Q310.86 77.04 311.28 76.07Q311.71 75.10 312.72 74.63Q313.73 74.17 315.42 74.17L315.42 74.17Q317.96 74.17 318.93 75.18Q319.90 76.19 319.90 78.73L319.90 78.73Q319.90 80.42 319.48 81.39Q319.05 82.36 318.08 82.78Q317.11 83.21 315.42 83.21ZM357.49 26.52L381.99 77.72Q382.66 78.98 382.70 79.87Q382.75 80.76 382.16 81.47Q381.56 82.19 380.30 82.78L380.30 82.78Q378.27 83.71 377.13 83.21Q375.99 82.70 375.06 80.76L375.06 80.76L353.94 35.82L332.99 80.67Q332.06 82.61 330.92 83.12Q329.78 83.63 327.67 82.70L327.67 82.70Q326.40 82.19 325.85 81.43Q325.31 80.67 325.43 79.57Q325.56 78.48 326.23 77.04L326.23 77.04L350.48 26.44Q350.98 25.43 351.96 24.79Q352.93 24.16 354.03 24.16L354.03 24.16Q354.79 24.16 355.46 24.41Q356.14 24.67 356.64 25.17Q357.15 25.68 357.49 26.52L357.49 26.52ZM369.91 66.31L338.06 66.31L340.93 59.81L367.12 59.81L369.91 66.31ZM392.88 83.12L392.88 83.12Q391.19 83.12 390.39 82.66Q389.59 82.19 389.34 81.31Q389.08 80.42 389.08 79.24L389.08 79.24L389.08 27.96Q389.08 26.78 389.38 25.93Q389.67 25.09 390.48 24.62Q391.28 24.16 392.97 24.16L392.97 24.16Q394.66 24.16 395.46 24.62Q396.26 25.09 396.47 25.93Q396.68 26.78 396.68 28.05L396.68 28.05L396.68 79.32Q396.68 80.50 396.43 81.35Q396.18 82.19 395.38 82.66Q394.57 83.12 392.88 83.12Z" transform="translate(0, 0)"></path></g></svg></g></svg>