<svg viewBox="0 0 575 575" class="roots-wrapper"><g transform="rotate(0 0 0)"><svg viewBoxSize="575" data-root-id="6598165233029" xmlns="http://www.w3.org/2000/svg" viewBox="0 -0.00001527322456240654 104 103.09001159667969" fill="none" height="304.3138916167559" width="306.99993896484375" y="75" x="134" preserveAspectRatio="xMinYMin" zoom="1" editorType="buyer" data-layer-role="icon" style="position: absolute; height: 304.314px; width: 307px; top: 75px; left: 134px;"><path fill-rule="evenodd" clip-rule="evenodd" d="M47.5657 0.768269C47.9816 1.30026 48.1009 2.00618 47.883 2.64531L33.2848 45.47H51.61C52.2314 45.47 52.8174 45.7588 53.196 46.2515C53.5745 46.7443 53.7026 47.385 53.5425 47.9853L45.6066 77.745L74.8294 39.1789L52.3132 38.5392C51.5933 38.5187 50.9399 38.1128 50.6027 37.4763C50.2655 36.8398 50.2966 36.0713 50.6841 35.4641L70.0797 5.07135C70.0927 5.03725 70.1066 5.00331 70.1216 4.96956C70.4574 4.2118 71.2065 3.76601 71.9863 3.77981C72.3566 3.77692 72.732 3.87674 73.0681 4.08906C91.0966 12.2148 104 29.9313 104 51.09C104 64.8813 98.5214 78.1077 88.7695 87.8595C79.0177 97.6114 65.7913 103.09 52 103.09C38.2088 103.09 24.9823 97.6114 15.2305 87.8595C5.47857 78.1077 0 64.8813 0 51.09C0 25.3701 18.8642 4.58682 43.2997 0.372608L43.3423 0.364429C43.3834 0.356603 43.4418 0.345608 43.5147 0.332261C43.6601 0.305615 43.8645 0.269337 44.104 0.230078C44.5747 0.152946 45.2155 0.0585626 45.8208 0.00717027C46.4936 -0.0499563 47.1498 0.236277 47.5657 0.768269ZM72.7334 8.34855L55.9544 34.641L78.8268 35.2908C79.5756 35.3121 80.2497 35.75 80.5735 36.4255C80.8973 37.101 80.8165 37.9008 80.3641 38.4979L42.6441 88.2779C42.0667 89.0398 41.0309 89.2866 40.1719 88.8669C39.313 88.4472 38.8712 87.4784 39.1175 86.5547L49.0068 49.47H30.49C29.8447 49.47 29.2391 49.1587 28.8636 48.6339C28.488 48.1092 28.3888 47.4355 28.597 46.8247L43.0289 4.48794C20.8706 8.757 4 27.7567 4 51.09C4 63.8204 9.05713 76.0294 18.0589 85.0311C27.0606 94.0329 39.2696 99.09 52 99.09C64.7304 99.09 76.9394 94.0329 85.9411 85.0311C94.9429 76.0294 100 63.8204 100 51.09C100 32.1507 88.7605 16.1348 72.7334 8.34855Z" fill="url(#paint0_linear_22009_2400)" name="Layer %{number}" zoom="1" data-layer-id="8233109633029" style="fill: rgb(0, 0, 0); fill-opacity: 1;"></path><linearGradient id="paint0_linear_22009_2400" x1="52" y1="2" x2="52" y2="101.09" gradientUnits="userSpaceOnUse" name="Layer %{number}" zoom="1" data-layer-id="7666060533029"><stop stop-color="#5EA2EE"></stop><stop offset="1" stop-color="#4D53EA"></stop></linearGradient></svg></g><g transform="rotate(0 0 0)"><svg viewBoxSize="575" data-root-id="4400075733029" xmlns="http://www.w3.org/2000/svg" y="427.2574448635627" viewBox="1.1151471138000488 23.399999618530273 395.5648498535156 76.36000061035156" x="87.885009765625" height="76.36000061035156" width="395.5648498535156" fontUrl="https://fonts.gstatic.com/s/fredoka/v16/X7nP4b87HvSqjb_WIi2yDCRwoQ_k7367_B-i2yQag0-mac3O8SLMFuOLlNldbw.ttf" zoom="1" editorType="buyer" data-layer-role="brandName" style="position: absolute; top: 427.257px; width: 395.565px; height: 76.36px; left: 87.885px;"><g data-horizontal-grow="center" zoom="1" root="[object Object]" style="fill: rgb(0, 0, 0); fill-opacity: 1;"><path d="M33.20 26.52L57.69 77.72Q58.37 78.98 58.41 79.87Q58.46 80.76 57.86 81.47Q57.27 82.19 56.01 82.78L56.01 82.78Q53.98 83.71 52.84 83.21Q51.70 82.70 50.77 80.76L50.77 80.76L29.65 35.82L8.70 80.67Q7.77 82.61 6.63 83.12Q5.49 83.63 3.38 82.70L3.38 82.70Q2.11 82.19 1.56 81.43Q1.01 80.67 1.14 79.57Q1.27 78.48 1.94 77.04L1.94 77.04L26.19 26.44Q26.69 25.43 27.66 24.79Q28.64 24.16 29.73 24.16L29.73 24.16Q30.49 24.16 31.17 24.41Q31.85 24.67 32.35 25.17Q32.86 25.68 33.20 26.52L33.20 26.52ZM45.62 66.31L13.77 66.31L16.64 59.81L42.83 59.81L45.62 66.31ZM78.39 83.54L78.39 83.54Q76.36 83.54 74.17 83.12Q71.97 82.70 69.90 81.90Q67.83 81.09 66.27 80.00Q64.71 78.90 63.95 77.55L63.95 77.55Q63.52 76.70 63.44 75.98Q63.35 75.27 63.69 74.59Q64.03 73.91 64.71 73.24L64.71 73.24Q65.55 72.22 66.40 72.27Q67.24 72.31 68.51 73.41L68.51 73.41Q69.44 74.00 70.70 74.72Q71.97 75.43 73.32 75.98Q74.67 76.53 76.07 76.91Q77.46 77.29 78.81 77.29L78.81 77.29Q82.70 77.29 85.06 75.81Q87.43 74.34 87.43 71.89L87.43 71.89Q87.43 70.45 86.84 69.44Q86.25 68.42 85.23 67.71Q84.22 66.99 82.95 66.48Q81.69 65.97 80.12 65.51Q78.56 65.04 77.04 64.62L77.04 64.62Q74.76 64.03 72.56 63.27Q70.37 62.51 68.59 61.29Q66.82 60.06 65.72 58.16Q64.62 56.26 64.62 53.30L64.62 53.30Q64.62 49.84 66.40 47.30Q68.17 44.77 71.38 43.38Q74.59 41.98 78.90 41.98L78.90 41.98Q80.76 41.98 82.36 42.24Q83.97 42.49 85.44 43.04Q86.92 43.59 88.27 44.31Q89.63 45.02 90.89 46.04L90.89 46.04Q92.41 47.05 92.50 48.23Q92.58 49.42 91.57 50.68L91.57 50.68Q90.81 51.78 89.88 52.08Q88.95 52.37 88.02 51.61L88.02 51.61Q86.67 50.60 85.15 49.84Q83.63 49.08 82.02 48.57Q80.42 48.07 78.73 48.07L78.73 48.07Q76.62 48.07 74.97 48.70Q73.32 49.33 72.44 50.56Q71.55 51.78 71.55 53.30L71.55 53.30Q71.55 54.65 72.27 55.50Q72.98 56.34 74.12 56.93Q75.27 57.53 76.83 57.99Q78.39 58.46 80.08 58.88L80.08 58.88Q82.53 59.47 85.11 60.27Q87.68 61.07 89.75 62.38Q91.82 63.69 93.13 65.85Q94.44 68.00 94.44 71.55L94.44 71.55Q94.44 77.12 90.05 80.33Q85.66 83.54 78.39 83.54ZM122.82 83.12L122.82 83.12Q118.85 83.12 116.11 82.36Q113.36 81.60 111.59 80.00Q109.81 78.39 109.05 75.81Q108.29 73.24 108.29 69.44L108.29 69.44L108.29 32.10Q108.29 30.92 108.55 30.07Q108.80 29.23 109.56 28.76Q110.32 28.30 111.93 28.30L111.93 28.30Q113.53 28.30 114.38 28.76Q115.22 29.23 115.47 30.03Q115.73 30.83 115.73 32.02L115.73 32.02L115.73 69.44Q115.73 71.63 116.11 72.94Q116.49 74.25 117.29 74.93Q118.09 75.60 119.44 75.77Q120.80 75.94 122.74 75.94L122.74 75.94Q124.09 75.94 124.94 76.19Q125.78 76.45 126.20 77.21Q126.62 77.97 126.62 79.49L126.62 79.49Q126.62 81.09 126.16 81.90Q125.70 82.70 124.81 82.91Q123.92 83.12 122.82 83.12ZM103.90 43.17L103.90 43.17L112.01 43.25L123.75 43.08Q124.94 43.08 125.78 43.29Q126.62 43.50 127.09 44.31Q127.55 45.11 127.55 46.71L127.55 46.71Q127.55 48.32 127.13 49.12Q126.71 49.92 125.86 50.18Q125.02 50.43 123.84 50.43L123.84 50.43L112.26 50.26L103.73 50.35Q101.96 50.35 101.33 49.50Q100.69 48.66 100.69 46.71L100.69 46.71Q100.69 44.86 101.45 44.01Q102.21 43.17 103.90 43.17ZM139.04 83.12L139.04 83.12Q137.44 83.12 136.63 82.66Q135.83 82.19 135.62 81.31Q135.41 80.42 135.41 79.24L135.41 79.24L135.41 45.95Q135.41 44.69 135.66 43.84Q135.92 43.00 136.68 42.62Q137.44 42.24 139.13 42.24L139.13 42.24Q140.65 42.24 141.45 42.62Q142.25 43.00 142.55 43.71Q142.84 44.43 142.84 45.36L142.84 45.36L142.51 47.90Q143.10 46.80 143.90 45.70Q144.70 44.60 145.93 43.71Q147.15 42.83 148.88 42.24Q150.62 41.65 153.15 41.65L153.15 41.65Q154.42 41.65 155.56 41.86Q156.70 42.07 157.75 42.49Q158.81 42.91 159.57 43.46Q160.33 44.01 160.79 44.64Q161.26 45.28 161.26 46.12L161.26 46.12Q161.26 47.98 160.08 49.29Q158.89 50.60 157.63 50.60L157.63 50.60Q156.53 50.60 156.02 50.30Q155.51 50.01 155.05 49.67Q154.59 49.33 153.74 49.04Q152.90 48.74 151.04 48.74L151.04 48.74Q149.77 48.74 148.38 49.25Q146.98 49.75 145.72 50.73Q144.45 51.70 143.65 53.22Q142.84 54.74 142.84 56.77L142.84 56.77L142.84 79.40Q142.84 80.59 142.59 81.43Q142.34 82.28 141.53 82.70Q140.73 83.12 139.04 83.12ZM204.42 83.04L204.42 83.04Q202.57 83.04 201.76 82.28Q200.96 81.52 200.79 79.91L200.79 79.91L201.13 75.69Q200.29 77.04 198.51 78.77Q196.74 80.50 193.87 81.81Q190.99 83.12 186.85 83.12L186.85 83.12Q182.80 83.12 179.29 81.52Q175.79 79.91 173.13 77.04Q170.47 74.17 168.99 70.45Q167.51 66.73 167.51 62.51L167.51 62.51Q167.51 58.37 168.99 54.70Q170.47 51.02 173.17 48.23Q175.87 45.45 179.38 43.84Q182.88 42.24 186.85 42.24L186.85 42.24Q190.57 42.24 193.19 43.21Q195.81 44.18 197.71 45.74Q199.61 47.30 201.05 49.25L201.05 49.25L200.88 45.70Q200.79 43.84 201.68 43.04Q202.57 42.24 204.51 42.24L204.51 42.24Q206.11 42.24 206.83 42.74Q207.55 43.25 207.80 44.18Q208.06 45.11 208.06 46.46L208.06 46.46L208.06 79.07Q208.06 80.25 207.80 81.18Q207.55 82.11 206.79 82.57Q206.03 83.04 204.42 83.04ZM188.12 76.03L188.12 76.03Q191.50 76.03 194.33 74.25Q197.16 72.48 198.81 69.48Q200.45 66.48 200.45 62.59L200.45 62.59Q200.45 58.62 198.72 55.63Q196.99 52.63 194.16 50.89Q191.33 49.16 187.95 49.16L187.95 49.16Q183.98 49.16 181.07 50.98Q178.15 52.80 176.46 55.84Q174.77 58.88 174.77 62.76L174.77 62.76Q174.77 66.56 176.46 69.56Q178.15 72.56 181.15 74.29Q184.15 76.03 188.12 76.03ZM238.80 82.78L238.80 82.78Q234.67 82.78 231.29 81.26Q227.91 79.74 225.54 77.00Q223.18 74.25 221.87 70.53Q220.56 66.82 220.64 62.34L220.64 62.34Q220.64 57.95 221.91 54.23Q223.18 50.51 225.58 47.77Q227.99 45.02 231.33 43.55Q234.67 42.07 238.80 42.07L238.80 42.07Q242.69 42.07 246.11 43.59Q249.53 45.11 252.11 47.85Q254.69 50.60 256.16 54.40Q257.64 58.20 257.64 62.59L257.64 62.59Q257.64 66.99 256.16 70.70Q254.69 74.42 252.11 77.12Q249.53 79.83 246.11 81.31Q242.69 82.78 238.80 82.78ZM221.23 99.76L221.23 99.76Q219.63 99.76 218.83 99.30Q218.02 98.83 217.73 97.99Q217.43 97.14 217.43 95.96L217.43 95.96L217.43 46.04Q217.43 44.86 217.69 44.01Q217.94 43.17 218.74 42.70Q219.55 42.24 221.15 42.24L221.15 42.24Q223.01 42.24 223.90 42.83Q224.78 43.42 224.95 44.94L224.95 44.94L224.95 95.88Q225.04 97.06 224.78 97.95Q224.53 98.83 223.73 99.30Q222.92 99.76 221.23 99.76ZM237.71 75.86L237.71 75.86Q241.25 75.86 244.13 74.12Q247.00 72.39 248.65 69.35Q250.29 66.31 250.29 62.43L250.29 62.43Q250.29 58.46 248.65 55.50Q247.00 52.54 244.17 50.89Q241.34 49.25 237.71 49.25L237.71 49.25Q234.16 49.25 231.33 50.94Q228.50 52.63 226.85 55.58Q225.20 58.54 225.20 62.43L225.20 62.43Q225.20 66.31 226.85 69.35Q228.50 72.39 231.33 74.12Q234.16 75.86 237.71 75.86ZM269.72 83.12L269.72 83.12Q268.12 83.12 267.27 82.66Q266.43 82.19 266.22 81.31Q266.01 80.42 266.01 79.24L266.01 79.24L266.01 27.20Q266.01 26.02 266.26 25.17Q266.51 24.33 267.36 23.86Q268.20 23.40 269.81 23.40L269.81 23.40Q271.50 23.40 272.30 23.86Q273.10 24.33 273.31 25.17Q273.52 26.02 273.52 27.28L273.52 27.28L273.52 48.15Q275.55 45.78 278.46 43.93Q281.38 42.07 285.60 42.07L285.60 42.07Q290.59 42.07 294.51 44.39Q298.44 46.71 300.77 50.94Q303.09 55.16 303.09 60.99L303.09 60.99L303.09 79.32Q303.09 80.50 302.84 81.35Q302.58 82.19 301.82 82.66Q301.06 83.12 299.37 83.12L299.37 83.12Q297.77 83.12 296.92 82.66Q296.08 82.19 295.82 81.31Q295.57 80.42 295.57 79.24L295.57 79.24L295.57 60.90Q295.57 57.36 294.39 54.74Q293.21 52.12 290.88 50.68Q288.56 49.25 285.01 49.25L285.01 49.25Q280.20 49.25 277.11 51.99Q274.03 54.74 273.52 59.30L273.52 59.30L273.52 79.32Q273.52 80.50 273.27 81.35Q273.02 82.19 272.21 82.66Q271.41 83.12 269.72 83.12ZM315.42 83.21L315.42 83.21Q312.89 83.21 311.87 82.19Q310.86 81.18 310.86 78.81L310.86 78.81Q310.86 77.04 311.28 76.07Q311.71 75.10 312.72 74.63Q313.73 74.17 315.42 74.17L315.42 74.17Q317.96 74.17 318.93 75.18Q319.90 76.19 319.90 78.73L319.90 78.73Q319.90 80.42 319.48 81.39Q319.05 82.36 318.08 82.78Q317.11 83.21 315.42 83.21ZM357.49 26.52L381.99 77.72Q382.66 78.98 382.70 79.87Q382.75 80.76 382.16 81.47Q381.56 82.19 380.30 82.78L380.30 82.78Q378.27 83.71 377.13 83.21Q375.99 82.70 375.06 80.76L375.06 80.76L353.94 35.82L332.99 80.67Q332.06 82.61 330.92 83.12Q329.78 83.63 327.67 82.70L327.67 82.70Q326.40 82.19 325.85 81.43Q325.31 80.67 325.43 79.57Q325.56 78.48 326.23 77.04L326.23 77.04L350.48 26.44Q350.98 25.43 351.96 24.79Q352.93 24.16 354.03 24.16L354.03 24.16Q354.79 24.16 355.46 24.41Q356.14 24.67 356.64 25.17Q357.15 25.68 357.49 26.52L357.49 26.52ZM369.91 66.31L338.06 66.31L340.93 59.81L367.12 59.81L369.91 66.31ZM392.88 83.12L392.88 83.12Q391.19 83.12 390.39 82.66Q389.59 82.19 389.34 81.31Q389.08 80.42 389.08 79.24L389.08 79.24L389.08 27.96Q389.08 26.78 389.38 25.93Q389.67 25.09 390.48 24.62Q391.28 24.16 392.97 24.16L392.97 24.16Q394.66 24.16 395.46 24.62Q396.26 25.09 396.47 25.93Q396.68 26.78 396.68 28.05L396.68 28.05L396.68 79.32Q396.68 80.50 396.43 81.35Q396.18 82.19 395.38 82.66Q394.57 83.12 392.88 83.12Z" transform="translate(0, 0)"></path></g></svg></g></svg>